<svg xmlns="http://www.w3.org/2000/svg" xml:lang="en" height="234.04pt" width="153.57999999999998pt" viewBox="-21.439999999999998 -232.04 153.57999999999998 234.04"><polygon points="0.0,-0.0 97.19999999999999,-0.0 97.19999999999999,-230.04 0.0,-230.04 " style="stroke:black;fill:none;stroke-width:2;stroke-linecap:round;stroke-linejoin:round;" /><polygon points="0.0,-16.2 0.0,-35.64 -19.439999999999998,-35.64 -19.439999999999998,-16.2 " style="stroke:black;fill:none;stroke-width:2;stroke-linecap:round;stroke-linejoin:round;" /><polygon points="97.19999999999999,-16.2 97.19999999999999,-35.64 116.64,-35.64 116.64,-16.2 " style="stroke:black;fill:none;stroke-width:2;stroke-linecap:round;stroke-linejoin:round;" /><polygon points="0.0,-51.84 0.0,-71.28 -19.439999999999998,-71.28 -19.439999999999998,-51.84 " style="stroke:black;fill:none;stroke-width:2;stroke-linecap:round;stroke-linejoin:round;" /><polygon points="97.19999999999999,-51.84 97.19999999999999,-71.28 116.64,-71.28 116.64,-51.84 " style="stroke:black;fill:none;stroke-width:2;stroke-linecap:round;stroke-linejoin:round;" /><polygon points="0.0,-87.48 0.0,-106.91999999999999 -19.439999999999998,-106.91999999999999 -19.439999999999998,-87.48 " style="stroke:black;fill:none;stroke-width:2;stroke-linecap:round;stroke-linejoin:round;" /><polygon points="97.19999999999999,-87.48 97.19999999999999,-106.91999999999999 116.64,-106.91999999999999 116.64,-87.48 " style="stroke:black;fill:none;stroke-width:2;stroke-linecap:round;stroke-linejoin:round;" /><polygon points="0.0,-123.11999999999999 0.0,-142.56 -19.439999999999998,-142.56 -19.439999999999998,-123.11999999999999 " style="stroke:black;fill:none;stroke-width:2;stroke-linecap:round;stroke-linejoin:round;" /><polygon points="97.19999999999999,-123.11999999999999 97.19999999999999,-142.56 116.64,-142.56 116.64,-123.11999999999999 " style="stroke:black;fill:none;stroke-width:2;stroke-linecap:round;stroke-linejoin:round;" /><polygon points="0.0,-158.76 0.0,-178.2 -19.439999999999998,-178.2 -19.439999999999998,-158.76 " style="stroke:black;fill:none;stroke-width:2;stroke-linecap:round;stroke-linejoin:round;" /><polygon points="97.19999999999999,-158.76 97.19999999999999,-178.2 116.64,-178.2 116.64,-158.76 " style="stroke:black;fill:none;stroke-width:2;stroke-linecap:round;stroke-linejoin:round;" /><polygon points="0.0,-194.39999999999998 0.0,-213.83999999999997 -19.439999999999998,-213.83999999999997 -19.439999999999998,-194.39999999999998 " style="stroke:black;fill:none;stroke-width:2;stroke-linecap:round;stroke-linejoin:round;" /><polygon points="97.19999999999999,-194.39999999999998 97.19999999999999,-213.83999999999997 116.64,-213.83999999999997 116.64,-194.39999999999998 " style="stroke:black;fill:none;stroke-width:2;stroke-linecap:round;stroke-linejoin:round;" /><polygon points="0.0,-0.0 97.19999999999999,-0.0 97.19999999999999,-230.04 0.0,-230.04 " style="stroke:black;fill:none;stroke-width:2;stroke-linecap:round;stroke-linejoin:round;" /><polygon points="0.0,-16.2 0.0,-35.64 -19.439999999999998,-35.64 -19.439999999999998,-16.2 " style="stroke:black;fill:none;stroke-width:2;stroke-linecap:round;stroke-linejoin:round;" /><polygon points="97.19999999999999,-16.2 97.19999999999999,-35.64 116.64,-35.64 116.64,-16.2 " style="stroke:black;fill:none;stroke-width:2;stroke-linecap:round;stroke-linejoin:round;" /><polygon points="0.0,-51.84 0.0,-71.28 -19.439999999999998,-71.28 -19.439999999999998,-51.84 " style="stroke:black;fill:none;stroke-width:2;stroke-linecap:round;stroke-linejoin:round;" /><polygon points="97.19999999999999,-51.84 97.19999999999999,-71.28 116.64,-71.28 116.64,-51.84 " style="stroke:black;fill:none;stroke-width:2;stroke-linecap:round;stroke-linejoin:round;" /><polygon points="0.0,-87.48 0.0,-106.91999999999999 -19.439999999999998,-106.91999999999999 -19.439999999999998,-87.48 " style="stroke:black;fill:none;stroke-width:2;stroke-linecap:round;stroke-linejoin:round;" /><polygon points="97.19999999999999,-87.48 97.19999999999999,-106.91999999999999 116.64,-106.91999999999999 116.64,-87.48 " style="stroke:black;fill:none;stroke-width:2;stroke-linecap:round;stroke-linejoin:round;" /><polygon points="0.0,-123.11999999999999 0.0,-142.56 -19.439999999999998,-142.56 -19.439999999999998,-123.11999999999999 " style="stroke:black;fill:none;stroke-width:2;stroke-linecap:round;stroke-linejoin:round;" /><polygon points="97.19999999999999,-123.11999999999999 97.19999999999999,-142.56 116.64,-142.56 116.64,-123.11999999999999 " style="stroke:black;fill:none;stroke-width:2;stroke-linecap:round;stroke-linejoin:round;" /><polygon points="0.0,-158.76 0.0,-178.2 -19.439999999999998,-178.2 -19.439999999999998,-158.76 " style="stroke:black;fill:none;stroke-width:2;stroke-linecap:round;stroke-linejoin:round;" /><polygon points="97.19999999999999,-158.76 97.19999999999999,-178.2 116.64,-178.2 116.64,-158.76 " style="stroke:black;fill:none;stroke-width:2;stroke-linecap:round;stroke-linejoin:round;" /><polygon points="0.0,-194.39999999999998 0.0,-213.83999999999997 -19.439999999999998,-213.83999999999997 -19.439999999999998,-194.39999999999998 " style="stroke:black;fill:none;stroke-width:2;stroke-linecap:round;stroke-linejoin:round;" /><polygon points="97.19999999999999,-194.39999999999998 97.19999999999999,-213.83999999999997 116.64,-213.83999999999997 116.64,-194.39999999999998 " style="stroke:black;fill:none;stroke-width:2;stroke-linecap:round;stroke-linejoin:round;" /><path d="M 38.879999999999995,-230.04 L 38.89997078246673,-229.41723746178747 L 38.95980106563805,-228.7970339884266 L 39.05924499404684,-228.18193812902263 L 39.19789393126064,-227.57447744439955 L 39.3751781390563,-226.97714812081037 L 39.59036911859666,-226.39240471257247 L 39.84258260398848,-225.82265005577733 L 40.13078219592065,-225.2702253945217 L 40.453783620451304,-224.73740076023344 L 40.81025959544346,-224.22636564362534 L 41.19874528465201,-223.73921999760827 L 41.617644317050086,-223.2779656081341 L 42.065235346659996,-222.8444978684279 L 42.539679125933105,-222.4405979904107 L 43.03902606361251,-222.06792568531756 L 43.5612242360217,-221.728012343588 L 44.104127818859084,-221.4222547420544 L 44.66550590485033,-221.15190930428628 L 45.24305167102489,-220.9180869376763 L 45.834391857946365,-220.72174846848364 L 46.43709652194462,-220.56370069359264 L 47.04868902027555,-220.44459306521154 L 47.66665618817733,-220.36491502213377 L 48.28845866600351,-220.3249939785293 L 48.91154133399649,-220.3249939785293 L 49.53334381182267,-220.36491502213377 L 50.15131097972444,-220.44459306521154 L 50.76290347805538,-220.56370069359264 L 51.36560814205363,-220.72174846848364 L 51.95694832897511,-220.9180869376763 L 52.53449409514967,-221.15190930428628 L 53.09587218114092,-221.4222547420544 L 53.6387757639783,-221.728012343588 L 54.160973936387485,-222.06792568531756 L 54.66032087406689,-222.4405979904107 L 55.13476465333999,-222.8444978684279 L 55.58235568294991,-223.2779656081341 L 56.00125471534798,-223.73921999760827 L 56.38974040455654,-224.22636564362534 L 56.746216379548684,-224.73740076023344 L 57.069217804079344,-225.2702253945217 L 57.35741739601151,-225.82265005577733 L 57.60963088140333,-226.39240471257247 L 57.82482186094369,-226.97714812081037 L 58.00210606873936,-227.57447744439955 L 58.14075500595315,-228.18193812902263 L 58.24019893436195,-228.7970339884266 L 58.300029217533265,-229.41723746178747 L 58.32,-230.04" style="stroke:black;fill:none;stroke-width:2;stroke-linecap:round;stroke-linejoin:round;" /><path d="M 38.879999999999995,-230.04 L 38.89997078246673,-229.41723746178747 L 38.95980106563805,-228.7970339884266 L 39.05924499404684,-228.18193812902263 L 39.19789393126064,-227.57447744439955 L 39.3751781390563,-226.97714812081037 L 39.59036911859666,-226.39240471257247 L 39.84258260398848,-225.82265005577733 L 40.13078219592065,-225.2702253945217 L 40.453783620451304,-224.73740076023344 L 40.81025959544346,-224.22636564362534 L 41.19874528465201,-223.73921999760827 L 41.617644317050086,-223.2779656081341 L 42.065235346659996,-222.8444978684279 L 42.539679125933105,-222.4405979904107 L 43.03902606361251,-222.06792568531756 L 43.5612242360217,-221.728012343588 L 44.104127818859084,-221.4222547420544 L 44.66550590485033,-221.15190930428628 L 45.24305167102489,-220.9180869376763 L 45.834391857946365,-220.72174846848364 L 46.43709652194462,-220.56370069359264 L 47.04868902027555,-220.44459306521154 L 47.66665618817733,-220.36491502213377 L 48.28845866600351,-220.3249939785293 L 48.91154133399649,-220.3249939785293 L 49.53334381182267,-220.36491502213377 L 50.15131097972444,-220.44459306521154 L 50.76290347805538,-220.56370069359264 L 51.36560814205363,-220.72174846848364 L 51.95694832897511,-220.9180869376763 L 52.53449409514967,-221.15190930428628 L 53.09587218114092,-221.4222547420544 L 53.6387757639783,-221.728012343588 L 54.160973936387485,-222.06792568531756 L 54.66032087406689,-222.4405979904107 L 55.13476465333999,-222.8444978684279 L 55.58235568294991,-223.2779656081341 L 56.00125471534798,-223.73921999760827 L 56.38974040455654,-224.22636564362534 L 56.746216379548684,-224.73740076023344 L 57.069217804079344,-225.2702253945217 L 57.35741739601151,-225.82265005577733 L 57.60963088140333,-226.39240471257247 L 57.82482186094369,-226.97714812081037 L 58.00210606873936,-227.57447744439955 L 58.14075500595315,-228.18193812902263 L 58.24019893436195,-228.7970339884266 L 58.300029217533265,-229.41723746178747 L 58.32,-230.04" style="stroke:black;fill:none;stroke-width:2;stroke-linecap:round;stroke-linejoin:round;" /><text x="-9.719999999999999" y="-31.419999999999998" fill="black" font-size="10" font-family="sans-serif" text-anchor="middle" transform="rotate(0 -9.719999999999999 -27.419999999999998)"><tspan x="-9.719999999999999" dy="8.0">6</tspan></text><text x="106.91999999999999" y="-31.419999999999998" fill="black" font-size="10" font-family="sans-serif" text-anchor="middle" transform="rotate(0 106.91999999999999 -27.419999999999998)"><tspan x="106.91999999999999" dy="8.0">7</tspan></text><text x="-9.719999999999999" y="-67.06" fill="black" font-size="10" font-family="sans-serif" text-anchor="middle" transform="rotate(0 -9.719999999999999 -63.06)"><tspan x="-9.719999999999999" dy="8.0">5</tspan></text><text x="106.91999999999999" y="-67.06" fill="black" font-size="10" font-family="sans-serif" text-anchor="middle" transform="rotate(0 106.91999999999999 -63.06)"><tspan x="106.91999999999999" dy="8.0">8</tspan></text><text x="-9.719999999999999" y="-102.69999999999999" fill="black" font-size="10" font-family="sans-serif" text-anchor="middle" transform="rotate(0 -9.719999999999999 -98.69999999999999)"><tspan x="-9.719999999999999" dy="8.0">4</tspan></text><text x="106.91999999999999" y="-102.69999999999999" fill="black" font-size="10" font-family="sans-serif" text-anchor="middle" transform="rotate(0 106.91999999999999 -98.69999999999999)"><tspan x="106.91999999999999" dy="8.0">9</tspan></text><text x="-9.719999999999999" y="-138.34" fill="black" font-size="10" font-family="sans-serif" text-anchor="middle" transform="rotate(0 -9.719999999999999 -134.34)"><tspan x="-9.719999999999999" dy="8.0">3</tspan></text><text x="106.91999999999999" y="-138.34" fill="black" font-size="10" font-family="sans-serif" text-anchor="middle" transform="rotate(0 106.91999999999999 -134.34)"><tspan x="106.91999999999999" dy="8.0">10</tspan></text><text x="-9.719999999999999" y="-173.98000000000002" fill="black" font-size="10" font-family="sans-serif" text-anchor="middle" transform="rotate(0 -9.719999999999999 -169.98000000000002)"><tspan x="-9.719999999999999" dy="8.0">2</tspan></text><text x="106.91999999999999" y="-173.98000000000002" fill="black" font-size="10" font-family="sans-serif" text-anchor="middle" transform="rotate(0 106.91999999999999 -169.98000000000002)"><tspan x="106.91999999999999" dy="8.0">11</tspan></text><text x="-9.719999999999999" y="-209.62" fill="black" font-size="10" font-family="sans-serif" text-anchor="middle" transform="rotate(0 -9.719999999999999 -205.62)"><tspan x="-9.719999999999999" dy="8.0">1</tspan></text><text x="106.91999999999999" y="-209.62" fill="black" font-size="10" font-family="sans-serif" text-anchor="middle" transform="rotate(0 106.91999999999999 -205.62)"><tspan x="106.91999999999999" dy="8.0">12</tspan></text><text x="-9.719999999999999" y="-31.419999999999998" fill="black" font-size="10" font-family="sans-serif" text-anchor="middle" transform="rotate(0 -9.719999999999999 -27.419999999999998)"><tspan x="-9.719999999999999" dy="8.0">6</tspan></text><text x="106.91999999999999" y="-31.419999999999998" fill="black" font-size="10" font-family="sans-serif" text-anchor="middle" transform="rotate(0 106.91999999999999 -27.419999999999998)"><tspan x="106.91999999999999" dy="8.0">7</tspan></text><text x="-9.719999999999999" y="-67.06" fill="black" font-size="10" font-family="sans-serif" text-anchor="middle" transform="rotate(0 -9.719999999999999 -63.06)"><tspan x="-9.719999999999999" dy="8.0">5</tspan></text><text x="106.91999999999999" y="-67.06" fill="black" font-size="10" font-family="sans-serif" text-anchor="middle" transform="rotate(0 106.91999999999999 -63.06)"><tspan x="106.91999999999999" dy="8.0">8</tspan></text><text x="-9.719999999999999" y="-102.69999999999999" fill="black" font-size="10" font-family="sans-serif" text-anchor="middle" transform="rotate(0 -9.719999999999999 -98.69999999999999)"><tspan x="-9.719999999999999" dy="8.0">4</tspan></text><text x="106.91999999999999" y="-102.69999999999999" fill="black" font-size="10" font-family="sans-serif" text-anchor="middle" transform="rotate(0 106.91999999999999 -98.69999999999999)"><tspan x="106.91999999999999" dy="8.0">9</tspan></text><text x="-9.719999999999999" y="-138.34" fill="black" font-size="10" font-family="sans-serif" text-anchor="middle" transform="rotate(0 -9.719999999999999 -134.34)"><tspan x="-9.719999999999999" dy="8.0">3</tspan></text><text x="106.91999999999999" y="-138.34" fill="black" font-size="10" font-family="sans-serif" text-anchor="middle" transform="rotate(0 106.91999999999999 -134.34)"><tspan x="106.91999999999999" dy="8.0">10</tspan></text><text x="-9.719999999999999" y="-173.98000000000002" fill="black" font-size="10" font-family="sans-serif" text-anchor="middle" transform="rotate(0 -9.719999999999999 -169.98000000000002)"><tspan x="-9.719999999999999" dy="8.0">2</tspan></text><text x="106.91999999999999" y="-173.98000000000002" fill="black" font-size="10" font-family="sans-serif" text-anchor="middle" transform="rotate(0 106.91999999999999 -169.98000000000002)"><tspan x="106.91999999999999" dy="8.0">11</tspan></text><text x="-9.719999999999999" y="-209.62" fill="black" font-size="10" font-family="sans-serif" text-anchor="middle" transform="rotate(0 -9.719999999999999 -205.62)"><tspan x="-9.719999999999999" dy="8.0">1</tspan></text><text x="106.91999999999999" y="-209.62" fill="black" font-size="10" font-family="sans-serif" text-anchor="middle" transform="rotate(0 106.91999999999999 -205.62)"><tspan x="106.91999999999999" dy="8.0">12</tspan></text></svg>