<svg xmlns="http://www.w3.org/2000/svg" xml:lang="en" height="305.32pt" width="153.57999999999998pt" viewBox="-21.439999999999998 -303.32 153.57999999999998 305.32"><polygon points="0.0,-0.0 97.19999999999999,-0.0 97.19999999999999,-301.32 0.0,-301.32 " style="stroke:black;fill:none;stroke-width:2;stroke-linecap:round;stroke-linejoin:round;" /><polygon points="0.0,-16.2 0.0,-35.64 -19.439999999999998,-35.64 -19.439999999999998,-16.2 " style="stroke:black;fill:none;stroke-width:2;stroke-linecap:round;stroke-linejoin:round;" /><polygon points="97.19999999999999,-16.2 97.19999999999999,-35.64 116.64,-35.64 116.64,-16.2 " style="stroke:black;fill:none;stroke-width:2;stroke-linecap:round;stroke-linejoin:round;" /><polygon points="0.0,-51.84 0.0,-71.28 -19.439999999999998,-71.28 -19.439999999999998,-51.84 " style="stroke:black;fill:none;stroke-width:2;stroke-linecap:round;stroke-linejoin:round;" /><polygon points="97.19999999999999,-51.84 97.19999999999999,-71.28 116.64,-71.28 116.64,-51.84 " style="stroke:black;fill:none;stroke-width:2;stroke-linecap:round;stroke-linejoin:round;" /><polygon points="0.0,-87.48 0.0,-106.91999999999999 -19.439999999999998,-106.91999999999999 -19.439999999999998,-87.48 " style="stroke:black;fill:none;stroke-width:2;stroke-linecap:round;stroke-linejoin:round;" /><polygon points="97.19999999999999,-87.48 97.19999999999999,-106.91999999999999 116.64,-106.91999999999999 116.64,-87.48 " style="stroke:black;fill:none;stroke-width:2;stroke-linecap:round;stroke-linejoin:round;" /><polygon points="0.0,-123.11999999999999 0.0,-142.56 -19.439999999999998,-142.56 -19.439999999999998,-123.11999999999999 " style="stroke:black;fill:none;stroke-width:2;stroke-linecap:round;stroke-linejoin:round;" /><polygon points="97.19999999999999,-123.11999999999999 97.19999999999999,-142.56 116.64,-142.56 116.64,-123.11999999999999 " style="stroke:black;fill:none;stroke-width:2;stroke-linecap:round;stroke-linejoin:round;" /><polygon points="0.0,-158.76 0.0,-178.2 -19.439999999999998,-178.2 -19.439999999999998,-158.76 " style="stroke:black;fill:none;stroke-width:2;stroke-linecap:round;stroke-linejoin:round;" /><polygon points="97.19999999999999,-158.76 97.19999999999999,-178.2 116.64,-178.2 116.64,-158.76 " style="stroke:black;fill:none;stroke-width:2;stroke-linecap:round;stroke-linejoin:round;" /><polygon points="0.0,-194.39999999999998 0.0,-213.83999999999997 -19.439999999999998,-213.83999999999997 -19.439999999999998,-194.39999999999998 " style="stroke:black;fill:none;stroke-width:2;stroke-linecap:round;stroke-linejoin:round;" /><polygon points="97.19999999999999,-194.39999999999998 97.19999999999999,-213.83999999999997 116.64,-213.83999999999997 116.64,-194.39999999999998 " style="stroke:black;fill:none;stroke-width:2;stroke-linecap:round;stroke-linejoin:round;" /><polygon points="0.0,-230.04 0.0,-249.48 -19.439999999999998,-249.48 -19.439999999999998,-230.04 " style="stroke:black;fill:none;stroke-width:2;stroke-linecap:round;stroke-linejoin:round;" /><polygon points="97.19999999999999,-230.04 97.19999999999999,-249.48 116.64,-249.48 116.64,-230.04 " style="stroke:black;fill:none;stroke-width:2;stroke-linecap:round;stroke-linejoin:round;" /><polygon points="0.0,-265.67999999999995 0.0,-285.12 -19.439999999999998,-285.12 -19.439999999999998,-265.67999999999995 " style="stroke:black;fill:none;stroke-width:2;stroke-linecap:round;stroke-linejoin:round;" /><polygon points="97.19999999999999,-265.67999999999995 97.19999999999999,-285.12 116.64,-285.12 116.64,-265.67999999999995 " style="stroke:black;fill:none;stroke-width:2;stroke-linecap:round;stroke-linejoin:round;" /><polygon points="0.0,-0.0 97.19999999999999,-0.0 97.19999999999999,-301.32 0.0,-301.32 " style="stroke:black;fill:none;stroke-width:2;stroke-linecap:round;stroke-linejoin:round;" /><polygon points="0.0,-16.2 0.0,-35.64 -19.439999999999998,-35.64 -19.439999999999998,-16.2 " style="stroke:black;fill:none;stroke-width:2;stroke-linecap:round;stroke-linejoin:round;" /><polygon points="97.19999999999999,-16.2 97.19999999999999,-35.64 116.64,-35.64 116.64,-16.2 " style="stroke:black;fill:none;stroke-width:2;stroke-linecap:round;stroke-linejoin:round;" /><polygon points="0.0,-51.84 0.0,-71.28 -19.439999999999998,-71.28 -19.439999999999998,-51.84 " style="stroke:black;fill:none;stroke-width:2;stroke-linecap:round;stroke-linejoin:round;" /><polygon points="97.19999999999999,-51.84 97.19999999999999,-71.28 116.64,-71.28 116.64,-51.84 " style="stroke:black;fill:none;stroke-width:2;stroke-linecap:round;stroke-linejoin:round;" /><polygon points="0.0,-87.48 0.0,-106.91999999999999 -19.439999999999998,-106.91999999999999 -19.439999999999998,-87.48 " style="stroke:black;fill:none;stroke-width:2;stroke-linecap:round;stroke-linejoin:round;" /><polygon points="97.19999999999999,-87.48 97.19999999999999,-106.91999999999999 116.64,-106.91999999999999 116.64,-87.48 " style="stroke:black;fill:none;stroke-width:2;stroke-linecap:round;stroke-linejoin:round;" /><polygon points="0.0,-123.11999999999999 0.0,-142.56 -19.439999999999998,-142.56 -19.439999999999998,-123.11999999999999 " style="stroke:black;fill:none;stroke-width:2;stroke-linecap:round;stroke-linejoin:round;" /><polygon points="97.19999999999999,-123.11999999999999 97.19999999999999,-142.56 116.64,-142.56 116.64,-123.11999999999999 " style="stroke:black;fill:none;stroke-width:2;stroke-linecap:round;stroke-linejoin:round;" /><polygon points="0.0,-158.76 0.0,-178.2 -19.439999999999998,-178.2 -19.439999999999998,-158.76 " style="stroke:black;fill:none;stroke-width:2;stroke-linecap:round;stroke-linejoin:round;" /><polygon points="97.19999999999999,-158.76 97.19999999999999,-178.2 116.64,-178.2 116.64,-158.76 " style="stroke:black;fill:none;stroke-width:2;stroke-linecap:round;stroke-linejoin:round;" /><polygon points="0.0,-194.39999999999998 0.0,-213.83999999999997 -19.439999999999998,-213.83999999999997 -19.439999999999998,-194.39999999999998 " style="stroke:black;fill:none;stroke-width:2;stroke-linecap:round;stroke-linejoin:round;" /><polygon points="97.19999999999999,-194.39999999999998 97.19999999999999,-213.83999999999997 116.64,-213.83999999999997 116.64,-194.39999999999998 " style="stroke:black;fill:none;stroke-width:2;stroke-linecap:round;stroke-linejoin:round;" /><polygon points="0.0,-230.04 0.0,-249.48 -19.439999999999998,-249.48 -19.439999999999998,-230.04 " style="stroke:black;fill:none;stroke-width:2;stroke-linecap:round;stroke-linejoin:round;" /><polygon points="97.19999999999999,-230.04 97.19999999999999,-249.48 116.64,-249.48 116.64,-230.04 " style="stroke:black;fill:none;stroke-width:2;stroke-linecap:round;stroke-linejoin:round;" /><polygon points="0.0,-265.67999999999995 0.0,-285.12 -19.439999999999998,-285.12 -19.439999999999998,-265.67999999999995 " style="stroke:black;fill:none;stroke-width:2;stroke-linecap:round;stroke-linejoin:round;" /><polygon points="97.19999999999999,-265.67999999999995 97.19999999999999,-285.12 116.64,-285.12 116.64,-265.67999999999995 " style="stroke:black;fill:none;stroke-width:2;stroke-linecap:round;stroke-linejoin:round;" /><path d="M 38.879999999999995,-301.32 L 38.89997078246673,-300.69723746178744 L 38.95980106563805,-300.0770339884266 L 39.05924499404684,-299.46193812902266 L 39.19789393126064,-298.8544774443996 L 39.3751781390563,-298.2571481208104 L 39.59036911859666,-297.6724047125725 L 39.84258260398848,-297.10265005577736 L 40.13078219592065,-296.55022539452176 L 40.453783620451304,-296.01740076023344 L 40.81025959544346,-295.5063656436254 L 41.19874528465201,-295.01921999760833 L 41.617644317050086,-294.5579656081341 L 42.065235346659996,-294.12449786842797 L 42.539679125933105,-293.72059799041074 L 43.03902606361251,-293.3479256853176 L 43.5612242360217,-293.008012343588 L 44.104127818859084,-292.7022547420545 L 44.66550590485033,-292.43190930428636 L 45.24305167102489,-292.19808693767635 L 45.834391857946365,-292.0017484684837 L 46.43709652194462,-291.8437006935927 L 47.04868902027555,-291.72459306521154 L 47.66665618817733,-291.64491502213383 L 48.28845866600351,-291.6049939785293 L 48.91154133399649,-291.6049939785293 L 49.53334381182267,-291.64491502213383 L 50.15131097972444,-291.72459306521154 L 50.76290347805538,-291.8437006935927 L 51.36560814205363,-292.0017484684837 L 51.95694832897511,-292.19808693767635 L 52.53449409514967,-292.43190930428636 L 53.09587218114092,-292.7022547420545 L 53.6387757639783,-293.00801234358806 L 54.160973936387485,-293.3479256853176 L 54.66032087406689,-293.72059799041074 L 55.13476465333999,-294.12449786842797 L 55.58235568294991,-294.5579656081341 L 56.00125471534798,-295.01921999760833 L 56.38974040455654,-295.5063656436254 L 56.746216379548684,-296.01740076023344 L 57.069217804079344,-296.55022539452176 L 57.35741739601151,-297.10265005577736 L 57.60963088140333,-297.6724047125725 L 57.82482186094369,-298.2571481208104 L 58.00210606873936,-298.8544774443996 L 58.14075500595315,-299.46193812902266 L 58.24019893436195,-300.0770339884266 L 58.300029217533265,-300.69723746178744 L 58.32,-301.32" style="stroke:black;fill:none;stroke-width:2;stroke-linecap:round;stroke-linejoin:round;" /><path d="M 38.879999999999995,-301.32 L 38.89997078246673,-300.69723746178744 L 38.95980106563805,-300.0770339884266 L 39.05924499404684,-299.46193812902266 L 39.19789393126064,-298.8544774443996 L 39.3751781390563,-298.2571481208104 L 39.59036911859666,-297.6724047125725 L 39.84258260398848,-297.10265005577736 L 40.13078219592065,-296.55022539452176 L 40.453783620451304,-296.01740076023344 L 40.81025959544346,-295.5063656436254 L 41.19874528465201,-295.01921999760833 L 41.617644317050086,-294.5579656081341 L 42.065235346659996,-294.12449786842797 L 42.539679125933105,-293.72059799041074 L 43.03902606361251,-293.3479256853176 L 43.5612242360217,-293.008012343588 L 44.104127818859084,-292.7022547420545 L 44.66550590485033,-292.43190930428636 L 45.24305167102489,-292.19808693767635 L 45.834391857946365,-292.0017484684837 L 46.43709652194462,-291.8437006935927 L 47.04868902027555,-291.72459306521154 L 47.66665618817733,-291.64491502213383 L 48.28845866600351,-291.6049939785293 L 48.91154133399649,-291.6049939785293 L 49.53334381182267,-291.64491502213383 L 50.15131097972444,-291.72459306521154 L 50.76290347805538,-291.8437006935927 L 51.36560814205363,-292.0017484684837 L 51.95694832897511,-292.19808693767635 L 52.53449409514967,-292.43190930428636 L 53.09587218114092,-292.7022547420545 L 53.6387757639783,-293.00801234358806 L 54.160973936387485,-293.3479256853176 L 54.66032087406689,-293.72059799041074 L 55.13476465333999,-294.12449786842797 L 55.58235568294991,-294.5579656081341 L 56.00125471534798,-295.01921999760833 L 56.38974040455654,-295.5063656436254 L 56.746216379548684,-296.01740076023344 L 57.069217804079344,-296.55022539452176 L 57.35741739601151,-297.10265005577736 L 57.60963088140333,-297.6724047125725 L 57.82482186094369,-298.2571481208104 L 58.00210606873936,-298.8544774443996 L 58.14075500595315,-299.46193812902266 L 58.24019893436195,-300.0770339884266 L 58.300029217533265,-300.69723746178744 L 58.32,-301.32" style="stroke:black;fill:none;stroke-width:2;stroke-linecap:round;stroke-linejoin:round;" /><text x="-9.719999999999999" y="-31.419999999999998" fill="black" font-size="10" font-family="sans-serif" text-anchor="middle" transform="rotate(0 -9.719999999999999 -27.419999999999998)"><tspan x="-9.719999999999999" dy="8.0">8</tspan></text><text x="106.91999999999999" y="-31.419999999999998" fill="black" font-size="10" font-family="sans-serif" text-anchor="middle" transform="rotate(0 106.91999999999999 -27.419999999999998)"><tspan x="106.91999999999999" dy="8.0">9</tspan></text><text x="-9.719999999999999" y="-67.06" fill="black" font-size="10" font-family="sans-serif" text-anchor="middle" transform="rotate(0 -9.719999999999999 -63.06)"><tspan x="-9.719999999999999" dy="8.0">7</tspan></text><text x="106.91999999999999" y="-67.06" fill="black" font-size="10" font-family="sans-serif" text-anchor="middle" transform="rotate(0 106.91999999999999 -63.06)"><tspan x="106.91999999999999" dy="8.0">10</tspan></text><text x="-9.719999999999999" y="-102.69999999999999" fill="black" font-size="10" font-family="sans-serif" text-anchor="middle" transform="rotate(0 -9.719999999999999 -98.69999999999999)"><tspan x="-9.719999999999999" dy="8.0">6</tspan></text><text x="106.91999999999999" y="-102.69999999999999" fill="black" font-size="10" font-family="sans-serif" text-anchor="middle" transform="rotate(0 106.91999999999999 -98.69999999999999)"><tspan x="106.91999999999999" dy="8.0">11</tspan></text><text x="-9.719999999999999" y="-138.34" fill="black" font-size="10" font-family="sans-serif" text-anchor="middle" transform="rotate(0 -9.719999999999999 -134.34)"><tspan x="-9.719999999999999" dy="8.0">5</tspan></text><text x="106.91999999999999" y="-138.34" fill="black" font-size="10" font-family="sans-serif" text-anchor="middle" transform="rotate(0 106.91999999999999 -134.34)"><tspan x="106.91999999999999" dy="8.0">12</tspan></text><text x="-9.719999999999999" y="-173.98000000000002" fill="black" font-size="10" font-family="sans-serif" text-anchor="middle" transform="rotate(0 -9.719999999999999 -169.98000000000002)"><tspan x="-9.719999999999999" dy="8.0">4</tspan></text><text x="106.91999999999999" y="-173.98000000000002" fill="black" font-size="10" font-family="sans-serif" text-anchor="middle" transform="rotate(0 106.91999999999999 -169.98000000000002)"><tspan x="106.91999999999999" dy="8.0">13</tspan></text><text x="-9.719999999999999" y="-209.62" fill="black" font-size="10" font-family="sans-serif" text-anchor="middle" transform="rotate(0 -9.719999999999999 -205.62)"><tspan x="-9.719999999999999" dy="8.0">3</tspan></text><text x="106.91999999999999" y="-209.62" fill="black" font-size="10" font-family="sans-serif" text-anchor="middle" transform="rotate(0 106.91999999999999 -205.62)"><tspan x="106.91999999999999" dy="8.0">14</tspan></text><text x="-9.719999999999999" y="-245.26000000000002" fill="black" font-size="10" font-family="sans-serif" text-anchor="middle" transform="rotate(0 -9.719999999999999 -241.26000000000002)"><tspan x="-9.719999999999999" dy="8.0">2</tspan></text><text x="106.91999999999999" y="-245.26000000000002" fill="black" font-size="10" font-family="sans-serif" text-anchor="middle" transform="rotate(0 106.91999999999999 -241.26000000000002)"><tspan x="106.91999999999999" dy="8.0">15</tspan></text><text x="-9.719999999999999" y="-280.9" fill="black" font-size="10" font-family="sans-serif" text-anchor="middle" transform="rotate(0 -9.719999999999999 -276.9)"><tspan x="-9.719999999999999" dy="8.0">1</tspan></text><text x="106.91999999999999" y="-280.9" fill="black" font-size="10" font-family="sans-serif" text-anchor="middle" transform="rotate(0 106.91999999999999 -276.9)"><tspan x="106.91999999999999" dy="8.0">16</tspan></text><text x="-9.719999999999999" y="-31.419999999999998" fill="black" font-size="10" font-family="sans-serif" text-anchor="middle" transform="rotate(0 -9.719999999999999 -27.419999999999998)"><tspan x="-9.719999999999999" dy="8.0">8</tspan></text><text x="106.91999999999999" y="-31.419999999999998" fill="black" font-size="10" font-family="sans-serif" text-anchor="middle" transform="rotate(0 106.91999999999999 -27.419999999999998)"><tspan x="106.91999999999999" dy="8.0">9</tspan></text><text x="-9.719999999999999" y="-67.06" fill="black" font-size="10" font-family="sans-serif" text-anchor="middle" transform="rotate(0 -9.719999999999999 -63.06)"><tspan x="-9.719999999999999" dy="8.0">7</tspan></text><text x="106.91999999999999" y="-67.06" fill="black" font-size="10" font-family="sans-serif" text-anchor="middle" transform="rotate(0 106.91999999999999 -63.06)"><tspan x="106.91999999999999" dy="8.0">10</tspan></text><text x="-9.719999999999999" y="-102.69999999999999" fill="black" font-size="10" font-family="sans-serif" text-anchor="middle" transform="rotate(0 -9.719999999999999 -98.69999999999999)"><tspan x="-9.719999999999999" dy="8.0">6</tspan></text><text x="106.91999999999999" y="-102.69999999999999" fill="black" font-size="10" font-family="sans-serif" text-anchor="middle" transform="rotate(0 106.91999999999999 -98.69999999999999)"><tspan x="106.91999999999999" dy="8.0">11</tspan></text><text x="-9.719999999999999" y="-138.34" fill="black" font-size="10" font-family="sans-serif" text-anchor="middle" transform="rotate(0 -9.719999999999999 -134.34)"><tspan x="-9.719999999999999" dy="8.0">5</tspan></text><text x="106.91999999999999" y="-138.34" fill="black" font-size="10" font-family="sans-serif" text-anchor="middle" transform="rotate(0 106.91999999999999 -134.34)"><tspan x="106.91999999999999" dy="8.0">12</tspan></text><text x="-9.719999999999999" y="-173.98000000000002" fill="black" font-size="10" font-family="sans-serif" text-anchor="middle" transform="rotate(0 -9.719999999999999 -169.98000000000002)"><tspan x="-9.719999999999999" dy="8.0">4</tspan></text><text x="106.91999999999999" y="-173.98000000000002" fill="black" font-size="10" font-family="sans-serif" text-anchor="middle" transform="rotate(0 106.91999999999999 -169.98000000000002)"><tspan x="106.91999999999999" dy="8.0">13</tspan></text><text x="-9.719999999999999" y="-209.62" fill="black" font-size="10" font-family="sans-serif" text-anchor="middle" transform="rotate(0 -9.719999999999999 -205.62)"><tspan x="-9.719999999999999" dy="8.0">3</tspan></text><text x="106.91999999999999" y="-209.62" fill="black" font-size="10" font-family="sans-serif" text-anchor="middle" transform="rotate(0 106.91999999999999 -205.62)"><tspan x="106.91999999999999" dy="8.0">14</tspan></text><text x="-9.719999999999999" y="-245.26000000000002" fill="black" font-size="10" font-family="sans-serif" text-anchor="middle" transform="rotate(0 -9.719999999999999 -241.26000000000002)"><tspan x="-9.719999999999999" dy="8.0">2</tspan></text><text x="106.91999999999999" y="-245.26000000000002" fill="black" font-size="10" font-family="sans-serif" text-anchor="middle" transform="rotate(0 106.91999999999999 -241.26000000000002)"><tspan x="106.91999999999999" dy="8.0">15</tspan></text><text x="-9.719999999999999" y="-280.9" fill="black" font-size="10" font-family="sans-serif" text-anchor="middle" transform="rotate(0 -9.719999999999999 -276.9)"><tspan x="-9.719999999999999" dy="8.0">1</tspan></text><text x="106.91999999999999" y="-280.9" fill="black" font-size="10" font-family="sans-serif" text-anchor="middle" transform="rotate(0 106.91999999999999 -276.9)"><tspan x="106.91999999999999" dy="8.0">16</tspan></text></svg>