<svg xmlns="http://www.w3.org/2000/svg" xml:lang="en" height="162.76pt" width="285.934pt" viewBox="-108.54200000000002 -160.76 285.934 162.76"><polygon points="0.0,-0.0 97.19999999999999,-0.0 97.19999999999999,-158.76 0.0,-158.76 " style="stroke:black;fill:none;stroke-width:2;stroke-linecap:round;stroke-linejoin:round;" /><polygon points="0.0,-16.2 0.0,-35.64 -19.439999999999998,-35.64 -19.439999999999998,-16.2 " style="stroke:black;fill:none;stroke-width:2;stroke-linecap:round;stroke-linejoin:round;" /><polygon points="97.19999999999999,-16.2 97.19999999999999,-35.64 116.64,-35.64 116.64,-16.2 " style="stroke:black;fill:none;stroke-width:2;stroke-linecap:round;stroke-linejoin:round;" /><polygon points="0.0,-51.84 0.0,-71.28 -19.439999999999998,-71.28 -19.439999999999998,-51.84 " style="stroke:black;fill:none;stroke-width:2;stroke-linecap:round;stroke-linejoin:round;" /><polygon points="97.19999999999999,-51.84 97.19999999999999,-71.28 116.64,-71.28 116.64,-51.84 " style="stroke:black;fill:none;stroke-width:2;stroke-linecap:round;stroke-linejoin:round;" /><polygon points="0.0,-87.48 0.0,-106.91999999999999 -19.439999999999998,-106.91999999999999 -19.439999999999998,-87.48 " style="stroke:black;fill:none;stroke-width:2;stroke-linecap:round;stroke-linejoin:round;" /><polygon points="97.19999999999999,-87.48 97.19999999999999,-106.91999999999999 116.64,-106.91999999999999 116.64,-87.48 " style="stroke:black;fill:none;stroke-width:2;stroke-linecap:round;stroke-linejoin:round;" /><polygon points="0.0,-123.11999999999999 0.0,-142.56 -19.439999999999998,-142.56 -19.439999999999998,-123.11999999999999 " style="stroke:black;fill:none;stroke-width:2;stroke-linecap:round;stroke-linejoin:round;" /><polygon points="97.19999999999999,-123.11999999999999 97.19999999999999,-142.56 116.64,-142.56 116.64,-123.11999999999999 " style="stroke:black;fill:none;stroke-width:2;stroke-linecap:round;stroke-linejoin:round;" /><polygon points="0.0,-0.0 97.19999999999999,-0.0 97.19999999999999,-158.76 0.0,-158.76 " style="stroke:black;fill:none;stroke-width:2;stroke-linecap:round;stroke-linejoin:round;" /><polygon points="0.0,-16.2 0.0,-35.64 -19.439999999999998,-35.64 -19.439999999999998,-16.2 " style="stroke:black;fill:none;stroke-width:2;stroke-linecap:round;stroke-linejoin:round;" /><polygon points="97.19999999999999,-16.2 97.19999999999999,-35.64 116.64,-35.64 116.64,-16.2 " style="stroke:black;fill:none;stroke-width:2;stroke-linecap:round;stroke-linejoin:round;" /><polygon points="0.0,-51.84 0.0,-71.28 -19.439999999999998,-71.28 -19.439999999999998,-51.84 " style="stroke:black;fill:none;stroke-width:2;stroke-linecap:round;stroke-linejoin:round;" /><polygon points="97.19999999999999,-51.84 97.19999999999999,-71.28 116.64,-71.28 116.64,-51.84 " style="stroke:black;fill:none;stroke-width:2;stroke-linecap:round;stroke-linejoin:round;" /><polygon points="0.0,-87.48 0.0,-106.91999999999999 -19.439999999999998,-106.91999999999999 -19.439999999999998,-87.48 " style="stroke:black;fill:none;stroke-width:2;stroke-linecap:round;stroke-linejoin:round;" /><polygon points="97.19999999999999,-87.48 97.19999999999999,-106.91999999999999 116.64,-106.91999999999999 116.64,-87.48 " style="stroke:black;fill:none;stroke-width:2;stroke-linecap:round;stroke-linejoin:round;" /><polygon points="0.0,-123.11999999999999 0.0,-142.56 -19.439999999999998,-142.56 -19.439999999999998,-123.11999999999999 " style="stroke:black;fill:none;stroke-width:2;stroke-linecap:round;stroke-linejoin:round;" /><polygon points="97.19999999999999,-123.11999999999999 97.19999999999999,-142.56 116.64,-142.56 116.64,-123.11999999999999 " style="stroke:black;fill:none;stroke-width:2;stroke-linecap:round;stroke-linejoin:round;" /><path d="M 38.879999999999995,-158.76 L 38.89997078246673,-158.1372374617875 L 38.95980106563805,-157.51703398842662 L 39.05924499404684,-156.90193812902265 L 39.19789393126064,-156.29447744439958 L 39.3751781390563,-155.6971481208104 L 39.59036911859666,-155.1124047125725 L 39.84258260398848,-154.54265005577736 L 40.13078219592065,-153.99022539452173 L 40.453783620451304,-153.45740076023347 L 40.81025959544346,-152.94636564362537 L 41.19874528465201,-152.4592199976083 L 41.617644317050086,-151.99796560813414 L 42.065235346659996,-151.56449786842794 L 42.539679125933105,-151.16059799041074 L 43.03902606361251,-150.7879256853176 L 43.5612242360217,-150.44801234358803 L 44.104127818859084,-150.14225474205443 L 44.66550590485033,-149.8719093042863 L 45.24305167102489,-149.63808693767632 L 45.834391857946365,-149.44174846848367 L 46.43709652194462,-149.28370069359266 L 47.04868902027555,-149.16459306521156 L 47.66665618817733,-149.0849150221338 L 48.28845866600351,-149.04499397852933 L 48.91154133399649,-149.04499397852933 L 49.53334381182267,-149.0849150221338 L 50.15131097972444,-149.16459306521156 L 50.76290347805538,-149.28370069359266 L 51.36560814205363,-149.44174846848367 L 51.95694832897511,-149.63808693767632 L 52.53449409514967,-149.8719093042863 L 53.09587218114092,-150.14225474205443 L 53.6387757639783,-150.44801234358803 L 54.160973936387485,-150.7879256853176 L 54.66032087406689,-151.16059799041074 L 55.13476465333999,-151.56449786842794 L 55.58235568294991,-151.99796560813414 L 56.00125471534798,-152.4592199976083 L 56.38974040455654,-152.94636564362537 L 56.746216379548684,-153.45740076023347 L 57.069217804079344,-153.99022539452173 L 57.35741739601151,-154.54265005577736 L 57.60963088140333,-155.1124047125725 L 57.82482186094369,-155.6971481208104 L 58.00210606873936,-156.29447744439958 L 58.14075500595315,-156.90193812902265 L 58.24019893436195,-157.51703398842662 L 58.300029217533265,-158.1372374617875 L 58.32,-158.76" style="stroke:black;fill:none;stroke-width:2;stroke-linecap:round;stroke-linejoin:round;" /><path d="M 0.0,-97.19999999999999 L 9.719999999999999,-97.19999999999999 L 19.439999999999998,-97.19999999999999" style="stroke:black;fill:none;stroke-width:2;stroke-linecap:round;stroke-linejoin:round;" /><path d="M 19.439999999999998,-81.0 L 19.439999999999998,-113.39999999999999 L 75.55844616523162,-81.0 L 19.439999999999998,-48.599999999999994 L 19.439999999999998,-81.0 M 75.55844616523162,-81.0" style="stroke:black;fill:none;stroke-width:2;stroke-linecap:round;stroke-linejoin:round;" /><path d="M 23.86280577065395,-97.19999999999999 L 29.046805770653947,-97.19999999999999" style="stroke:black;fill:none;stroke-width:2;stroke-linecap:round;stroke-linejoin:round;" /><path d="M 23.86280577065395,-64.8 L 29.046805770653947,-64.8" style="stroke:black;fill:none;stroke-width:2;stroke-linecap:round;stroke-linejoin:round;" /><path d="M 26.45480577065395,-62.208 L 26.45480577065395,-67.392" style="stroke:black;fill:none;stroke-width:2;stroke-linecap:round;stroke-linejoin:round;" /><path d="M 0.0,-61.56 L 9.719999999999999,-61.56 L 19.439999999999998,-61.56" style="stroke:black;fill:none;stroke-width:2;stroke-linecap:round;stroke-linejoin:round;" /><path d="M 75.55844616523162,-81.0 L 85.27844616523161,-81.0 L 85.27844616523161,-61.56 L 97.19999999999999,-61.56" style="stroke:black;fill:none;stroke-width:2;stroke-linecap:round;stroke-linejoin:round;" /><path d="M 0.0,-25.92 L 56.85229744348775,-25.92 L 56.85229744348775,-70.1136" style="stroke:black;fill:none;stroke-width:2;stroke-linecap:round;stroke-linejoin:round;" /><path d="M 97.19999999999999,-97.19999999999999 L 56.85229744348775,-97.19999999999999 L 56.85229744348775,-91.8864" style="stroke:black;fill:none;stroke-width:2;stroke-linecap:round;stroke-linejoin:round;" /><path d="M 38.879999999999995,-158.76 L 38.89997078246673,-158.1372374617875 L 38.95980106563805,-157.51703398842662 L 39.05924499404684,-156.90193812902265 L 39.19789393126064,-156.29447744439958 L 39.3751781390563,-155.6971481208104 L 39.59036911859666,-155.1124047125725 L 39.84258260398848,-154.54265005577736 L 40.13078219592065,-153.99022539452173 L 40.453783620451304,-153.45740076023347 L 40.81025959544346,-152.94636564362537 L 41.19874528465201,-152.4592199976083 L 41.617644317050086,-151.99796560813414 L 42.065235346659996,-151.56449786842794 L 42.539679125933105,-151.16059799041074 L 43.03902606361251,-150.7879256853176 L 43.5612242360217,-150.44801234358803 L 44.104127818859084,-150.14225474205443 L 44.66550590485033,-149.8719093042863 L 45.24305167102489,-149.63808693767632 L 45.834391857946365,-149.44174846848367 L 46.43709652194462,-149.28370069359266 L 47.04868902027555,-149.16459306521156 L 47.66665618817733,-149.0849150221338 L 48.28845866600351,-149.04499397852933 L 48.91154133399649,-149.04499397852933 L 49.53334381182267,-149.0849150221338 L 50.15131097972444,-149.16459306521156 L 50.76290347805538,-149.28370069359266 L 51.36560814205363,-149.44174846848367 L 51.95694832897511,-149.63808693767632 L 52.53449409514967,-149.8719093042863 L 53.09587218114092,-150.14225474205443 L 53.6387757639783,-150.44801234358803 L 54.160973936387485,-150.7879256853176 L 54.66032087406689,-151.16059799041074 L 55.13476465333999,-151.56449786842794 L 55.58235568294991,-151.99796560813414 L 56.00125471534798,-152.4592199976083 L 56.38974040455654,-152.94636564362537 L 56.746216379548684,-153.45740076023347 L 57.069217804079344,-153.99022539452173 L 57.35741739601151,-154.54265005577736 L 57.60963088140333,-155.1124047125725 L 57.82482186094369,-155.6971481208104 L 58.00210606873936,-156.29447744439958 L 58.14075500595315,-156.90193812902265 L 58.24019893436195,-157.51703398842662 L 58.300029217533265,-158.1372374617875 L 58.32,-158.76" style="stroke:black;fill:none;stroke-width:2;stroke-linecap:round;stroke-linejoin:round;" /><path d="M 0.0,-97.19999999999999 L 9.719999999999999,-97.19999999999999 L 19.439999999999998,-97.19999999999999" style="stroke:black;fill:none;stroke-width:2;stroke-linecap:round;stroke-linejoin:round;" /><path d="M 19.439999999999998,-81.0 L 19.439999999999998,-113.39999999999999 L 75.55844616523162,-81.0 L 19.439999999999998,-48.599999999999994 L 19.439999999999998,-81.0 M 75.55844616523162,-81.0" style="stroke:black;fill:none;stroke-width:2;stroke-linecap:round;stroke-linejoin:round;" /><path d="M 23.86280577065395,-97.19999999999999 L 29.046805770653947,-97.19999999999999" style="stroke:black;fill:none;stroke-width:2;stroke-linecap:round;stroke-linejoin:round;" /><path d="M 23.86280577065395,-64.8 L 29.046805770653947,-64.8" style="stroke:black;fill:none;stroke-width:2;stroke-linecap:round;stroke-linejoin:round;" /><path d="M 26.45480577065395,-62.208 L 26.45480577065395,-67.392" style="stroke:black;fill:none;stroke-width:2;stroke-linecap:round;stroke-linejoin:round;" /><path d="M 0.0,-61.56 L 9.719999999999999,-61.56 L 19.439999999999998,-61.56" style="stroke:black;fill:none;stroke-width:2;stroke-linecap:round;stroke-linejoin:round;" /><path d="M 75.55844616523162,-81.0 L 85.27844616523161,-81.0 L 85.27844616523161,-61.56 L 97.19999999999999,-61.56" style="stroke:black;fill:none;stroke-width:2;stroke-linecap:round;stroke-linejoin:round;" /><path d="M 0.0,-25.92 L 56.85229744348775,-25.92 L 56.85229744348775,-70.1136" style="stroke:black;fill:none;stroke-width:2;stroke-linecap:round;stroke-linejoin:round;" /><path d="M 97.19999999999999,-97.19999999999999 L 56.85229744348775,-97.19999999999999 L 56.85229744348775,-91.8864" style="stroke:black;fill:none;stroke-width:2;stroke-linecap:round;stroke-linejoin:round;" /><text x="-9.719999999999999" y="-31.419999999999998" fill="black" font-size="10" font-family="sans-serif" text-anchor="middle" transform="rotate(0 -9.719999999999999 -27.419999999999998)"><tspan x="-9.719999999999999" dy="8.0">4</tspan></text><text x="106.91999999999999" y="-31.419999999999998" fill="black" font-size="10" font-family="sans-serif" text-anchor="middle" transform="rotate(0 106.91999999999999 -27.419999999999998)"><tspan x="106.91999999999999" dy="8.0">5</tspan></text><text x="-9.719999999999999" y="-67.06" fill="black" font-size="10" font-family="sans-serif" text-anchor="middle" transform="rotate(0 -9.719999999999999 -63.06)"><tspan x="-9.719999999999999" dy="8.0">3</tspan></text><text x="106.91999999999999" y="-67.06" fill="black" font-size="10" font-family="sans-serif" text-anchor="middle" transform="rotate(0 106.91999999999999 -63.06)"><tspan x="106.91999999999999" dy="8.0">6</tspan></text><text x="-9.719999999999999" y="-102.69999999999999" fill="black" font-size="10" font-family="sans-serif" text-anchor="middle" transform="rotate(0 -9.719999999999999 -98.69999999999999)"><tspan x="-9.719999999999999" dy="8.0">2</tspan></text><text x="106.91999999999999" y="-102.69999999999999" fill="black" font-size="10" font-family="sans-serif" text-anchor="middle" transform="rotate(0 106.91999999999999 -98.69999999999999)"><tspan x="106.91999999999999" dy="8.0">7</tspan></text><text x="-9.719999999999999" y="-138.34" fill="black" font-size="10" font-family="sans-serif" text-anchor="middle" transform="rotate(0 -9.719999999999999 -134.34)"><tspan x="-9.719999999999999" dy="8.0">1</tspan></text><text x="106.91999999999999" y="-138.34" fill="black" font-size="10" font-family="sans-serif" text-anchor="middle" transform="rotate(0 106.91999999999999 -134.34)"><tspan x="106.91999999999999" dy="8.0">8</tspan></text><text x="-22.679999999999996" y="-138.34" fill="black" font-size="10" font-family="sans-serif" text-anchor="end" transform="rotate(0 -22.679999999999996 -134.34)"><tspan x="-22.679999999999996" dy="8.0">Offset Null</tspan></text><text x="-22.679999999999996" y="-102.69999999999999" fill="black" font-size="10" font-family="sans-serif" text-anchor="end" transform="rotate(0 -22.679999999999996 -98.69999999999999)"><tspan x="-22.679999999999996" dy="8.0">Inverting Input</tspan></text><text x="-22.679999999999996" y="-67.06" fill="black" font-size="10" font-family="sans-serif" text-anchor="end" transform="rotate(0 -22.679999999999996 -63.06)"><tspan x="-22.679999999999996" dy="8.0">Non-inverting Input</tspan></text><text x="-22.679999999999996" y="-31.419999999999998" fill="black" font-size="10" font-family="sans-serif" text-anchor="end" transform="rotate(0 -22.679999999999996 -27.419999999999998)"><tspan x="-22.679999999999996" dy="8.0">V-</tspan></text><text x="119.88" y="-31.419999999999998" fill="black" font-size="10" font-family="sans-serif" text-anchor="start" transform="rotate(0 119.88 -27.419999999999998)"><tspan x="119.88" dy="8.0">Offset Null</tspan></text><text x="119.88" y="-67.06" fill="black" font-size="10" font-family="sans-serif" text-anchor="start" transform="rotate(0 119.88 -63.06)"><tspan x="119.88" dy="8.0">Output</tspan></text><text x="119.88" y="-102.69999999999999" fill="black" font-size="10" font-family="sans-serif" text-anchor="start" transform="rotate(0 119.88 -98.69999999999999)"><tspan x="119.88" dy="8.0">V+</tspan></text><text x="119.88" y="-138.34" fill="black" font-size="10" font-family="sans-serif" text-anchor="start" transform="rotate(0 119.88 -134.34)"><tspan x="119.88" dy="8.0">NC</tspan></text><text x="-9.719999999999999" y="-31.419999999999998" fill="black" font-size="10" font-family="sans-serif" text-anchor="middle" transform="rotate(0 -9.719999999999999 -27.419999999999998)"><tspan x="-9.719999999999999" dy="8.0">4</tspan></text><text x="106.91999999999999" y="-31.419999999999998" fill="black" font-size="10" font-family="sans-serif" text-anchor="middle" transform="rotate(0 106.91999999999999 -27.419999999999998)"><tspan x="106.91999999999999" dy="8.0">5</tspan></text><text x="-9.719999999999999" y="-67.06" fill="black" font-size="10" font-family="sans-serif" text-anchor="middle" transform="rotate(0 -9.719999999999999 -63.06)"><tspan x="-9.719999999999999" dy="8.0">3</tspan></text><text x="106.91999999999999" y="-67.06" fill="black" font-size="10" font-family="sans-serif" text-anchor="middle" transform="rotate(0 106.91999999999999 -63.06)"><tspan x="106.91999999999999" dy="8.0">6</tspan></text><text x="-9.719999999999999" y="-102.69999999999999" fill="black" font-size="10" font-family="sans-serif" text-anchor="middle" transform="rotate(0 -9.719999999999999 -98.69999999999999)"><tspan x="-9.719999999999999" dy="8.0">2</tspan></text><text x="106.91999999999999" y="-102.69999999999999" fill="black" font-size="10" font-family="sans-serif" text-anchor="middle" transform="rotate(0 106.91999999999999 -98.69999999999999)"><tspan x="106.91999999999999" dy="8.0">7</tspan></text><text x="-9.719999999999999" y="-138.34" fill="black" font-size="10" font-family="sans-serif" text-anchor="middle" transform="rotate(0 -9.719999999999999 -134.34)"><tspan x="-9.719999999999999" dy="8.0">1</tspan></text><text x="106.91999999999999" y="-138.34" fill="black" font-size="10" font-family="sans-serif" text-anchor="middle" transform="rotate(0 106.91999999999999 -134.34)"><tspan x="106.91999999999999" dy="8.0">8</tspan></text><text x="-22.679999999999996" y="-138.34" fill="black" font-size="10" font-family="sans-serif" text-anchor="end" transform="rotate(0 -22.679999999999996 -134.34)"><tspan x="-22.679999999999996" dy="8.0">Offset Null</tspan></text><text x="-22.679999999999996" y="-102.69999999999999" fill="black" font-size="10" font-family="sans-serif" text-anchor="end" transform="rotate(0 -22.679999999999996 -98.69999999999999)"><tspan x="-22.679999999999996" dy="8.0">Inverting Input</tspan></text><text x="-22.679999999999996" y="-67.06" fill="black" font-size="10" font-family="sans-serif" text-anchor="end" transform="rotate(0 -22.679999999999996 -63.06)"><tspan x="-22.679999999999996" dy="8.0">Non-inverting Input</tspan></text><text x="-22.679999999999996" y="-31.419999999999998" fill="black" font-size="10" font-family="sans-serif" text-anchor="end" transform="rotate(0 -22.679999999999996 -27.419999999999998)"><tspan x="-22.679999999999996" dy="8.0">V-</tspan></text><text x="119.88" y="-31.419999999999998" fill="black" font-size="10" font-family="sans-serif" text-anchor="start" transform="rotate(0 119.88 -27.419999999999998)"><tspan x="119.88" dy="8.0">Offset Null</tspan></text><text x="119.88" y="-67.06" fill="black" font-size="10" font-family="sans-serif" text-anchor="start" transform="rotate(0 119.88 -63.06)"><tspan x="119.88" dy="8.0">Output</tspan></text><text x="119.88" y="-102.69999999999999" fill="black" font-size="10" font-family="sans-serif" text-anchor="start" transform="rotate(0 119.88 -98.69999999999999)"><tspan x="119.88" dy="8.0">V+</tspan></text><text x="119.88" y="-138.34" fill="black" font-size="10" font-family="sans-serif" text-anchor="start" transform="rotate(0 119.88 -134.34)"><tspan x="119.88" dy="8.0">NC</tspan></text></svg>