<svg xmlns="http://www.w3.org/2000/svg" viewBox="0 0 102 41"><title>Symbol oscilloscope</title><rect x="0.5" y="0.5" width="101" height="40" rx="6.33" ry="6.33" fill="#d1d3d4" stroke="#231f20" stroke-miterlimit="10"/><rect x="7.5" y="7.5" width="36.67" height="24.33" fill="#00aeef" stroke="#231f20" stroke-miterlimit="10"/><circle cx="55.43" cy="10.83" r="3.33" fill="#a7a9ac" stroke="#231f20" stroke-miterlimit="10"/><circle cx="55.43" cy="20.5" r="3.33" fill="#a7a9ac" stroke="#231f20" stroke-miterlimit="10"/><circle cx="60.58" cy="33.69" r="1.67" fill="#fff" stroke="#231f20" stroke-miterlimit="10"/><circle cx="70.29" cy="33.69" r="1.67" fill="#fff" stroke="#231f20" stroke-miterlimit="10"/><circle cx="80" cy="33.69" r="1.67" fill="#fff" stroke="#231f20" stroke-miterlimit="10"/><circle cx="89.72" cy="33.69" r="1.67" fill="#fff" stroke="#231f20" stroke-miterlimit="10"/><rect x="66.25" y="8.69" width="4.75" height="3.5" fill="#a7a9ac" stroke="#231f20" stroke-miterlimit="10"/><rect x="78.19" y="8.69" width="4.75" height="3.5" fill="#a7a9ac" stroke="#231f20" stroke-miterlimit="10"/><rect x="90.13" y="8.69" width="4.75" height="3.5" fill="#a7a9ac" stroke="#231f20" stroke-miterlimit="10"/><rect x="66.25" y="15.42" width="4.75" height="3.5" fill="#a7a9ac" stroke="#231f20" stroke-miterlimit="10"/><rect x="78.19" y="15.42" width="4.75" height="3.5" fill="#a7a9ac" stroke="#231f20" stroke-miterlimit="10"/><rect x="90.13" y="15.42" width="4.75" height="3.5" fill="#a7a9ac" stroke="#231f20" stroke-miterlimit="10"/><rect x="66.25" y="22.15" width="4.75" height="3.5" fill="#a7a9ac" stroke="#231f20" stroke-miterlimit="10"/><rect x="78.19" y="22.15" width="4.75" height="3.5" fill="#a7a9ac" stroke="#231f20" stroke-miterlimit="10"/><rect x="90.13" y="22.15" width="4.75" height="3.5" fill="#a7a9ac" stroke="#231f20" stroke-miterlimit="10"/><line x1="7.5" y1="19.95" x2="44.17" y2="19.95" fill="none"/><line x1="7.5" y1="19.95" x2="8" y2="19.95" fill="none" stroke="#231f20" stroke-miterlimit="10" stroke-width="0.5"/><line x1="9.02" y1="19.95" x2="43.16" y2="19.95" fill="none" stroke="#231f20" stroke-miterlimit="10" stroke-width="0.5" stroke-dasharray="1.02 1.02"/><line x1="43.67" y1="19.95" x2="44.17" y2="19.95" fill="none" stroke="#231f20" stroke-miterlimit="10" stroke-width="0.5"/><path d="M11.18,20s7.44-17.47,14.65,0,14.66,0,14.66,0" transform="translate(0 0)" fill="none" stroke="#231f20" stroke-miterlimit="10"/></svg>