<?xml version="1.0" ?><svg height="64" id="svg8" version="1.1" viewBox="0 0 16.933333 16.933333" width="64" xmlns="http://www.w3.org/2000/svg" xmlns:cc="http://creativecommons.org/ns#" xmlns:dc="http://purl.org/dc/elements/1.1/" xmlns:inkscape="http://www.inkscape.org/namespaces/inkscape" xmlns:rdf="http://www.w3.org/1999/02/22-rdf-syntax-ns#" xmlns:sodipodi="http://sodipodi.sourceforge.net/DTD/sodipodi-0.dtd" xmlns:svg="http://www.w3.org/2000/svg"><defs id="defs2"/><g id="layer1"/><g id="layer2"><path d="M 8.4596901,0.89839495 C 5.787322,0.90253495 3.6063219,2.9931 3.6062396,5.5761454 3.6063775,6.7037361 4.031791,7.786128 4.7891131,8.6302226 c -0.044621,0.039433 -0.0843,0.08333 -0.1126545,0.1297078 -0.077863,0.1273575 -0.1131713,0.2751775 -0.1131713,0.4351158 v 2.5197428 c 0,0.159939 0.035308,0.308275 0.1131713,0.435632 0.077863,0.127358 0.2208667,0.250114 0.4082438,0.250114 h 0.2129068 c -0.00802,0.04953 -0.013436,0.09988 -0.013436,0.151929 v 2.797245 c 0,0.159938 0.037375,0.307757 0.1152385,0.435116 0.077863,0.127357 0.2187998,0.250113 0.4061767,0.250113 h 0.7343222 c 0.1873768,0 0.3303804,-0.122756 0.4082436,-0.250113 0.077863,-0.127359 0.1131715,-0.275178 0.1131715,-0.435116 v -2.797245 c 0,-0.05203 -0.00518,-0.102408 -0.012919,-0.151929 h 0.5426024 c -0.007,0.04702 -0.011886,0.09464 -0.011886,0.144177 v 2.804997 c 0,0.159938 0.035308,0.307757 0.1131713,0.435116 0.077863,0.127357 0.2208662,0.250113 0.4082439,0.250113 h 0.7343222 c 0.1873773,0 0.3303807,-0.122756 0.4082438,-0.250113 0.077863,-0.127359 0.1131713,-0.275178 0.1131713,-0.435116 v -2.804997 c 0,-0.04954 -0.00488,-0.09716 -0.011886,-0.144177 h 0.6697264 c -0.0091,0.05261 -0.015503,0.106241 -0.015503,0.161747 v 2.787427 c 0,0.159938 0.037376,0.307757 0.115239,0.435116 0.07786,0.127357 0.219316,0.250113 0.406693,0.250113 h 0.734322 c 0.187378,0 0.330381,-0.122756 0.408244,-0.250113 0.07786,-0.127359 0.113171,-0.275178 0.113171,-0.435116 v -2.787427 c 0,-0.05552 -0.0062,-0.109122 -0.01499,-0.161747 h 0.08888 c 0.187377,0 0.32883,-0.122756 0.406693,-0.250114 0.07786,-0.127357 0.115239,-0.275693 0.115239,-0.435632 V 9.1950462 c 0,-0.1599386 -0.03738,-0.3077583 -0.115239,-0.4351158 -0.02818,-0.04609 -0.0677,-0.089408 -0.111621,-0.1286743 0.75749,-0.8443095 1.181828,-1.927107 1.18184,-3.0551107 -8.6e-5,-2.5859089 -2.184316,-4.67765045 -4.8596516,-4.67775045 z m 0,0.52916665 h 0.00775 c 2.4007509,8.97e-5 4.3319599,1.8605022 4.3320359,4.1485838 -1.2e-5,1.1055697 -0.475235,2.1543648 -1.295012,2.9336713 H 5.4304176 C 4.6104662,7.7305829 4.1355415,6.6817825 4.1354063,5.5761454 4.1354793,3.2906207 6.0616235,1.4312759 8.4596901,1.4275616 Z m 0.00775,2.0665404 c -1.0720184,0 -1.9471679,0.8751497 -1.9471679,1.9471681 0,1.0720181 0.8751495,1.9456175 1.9471679,1.9456175 1.0720184,0 1.9471689,-0.8735994 1.9471689,-1.9456175 0,-1.0720184 -0.8751505,-1.9471678 -1.9471689,-1.9471681 z m 0,0.5291667 c 0.7860353,0 1.4180013,0.631966 1.4180013,1.4180014 0,0.786035 -0.631966,1.4159341 -1.4180013,1.4159341 -0.7860353,0 -1.4180013,-0.6298991 -1.4180013,-1.4159341 0,-0.7860354 0.631966,-1.4180013 1.4180013,-1.4180014 z M 5.129661,9.0389832 h 0.068213 6.539135 0.06821 c 0.01502,0.025815 0.03721,0.084634 0.03721,0.156063 v 2.5197428 c 0,0.07143 -0.02218,0.130248 -0.03721,0.156063 H 8.9056577 c -0.023514,-0.0041 -0.04563,-0.01137 -0.070797,-0.01137 H 8.1005389 c -0.025071,0 -0.047366,0.0073 -0.070797,0.01137 H 6.563165 c -0.00809,-4.6e-4 -0.014989,-0.0036 -0.023254,-0.0036 H 5.8055886 c -0.00827,0 -0.015171,0.0032 -0.023255,0.0036 H 5.129661 C 5.114636,11.845032 5.092454,11.786222 5.092454,11.714789 V 9.1950462 c 0,-0.071429 0.022182,-0.1302478 0.037207,-0.156063 z M 6.05932,9.5603984 c -0.4232637,0 -0.7735959,0.3482656 -0.7735964,0.7715286 -3e-7,0.423264 0.3503321,0.773597 0.7735964,0.773597 0.423264,0 0.7715295,-0.350333 0.771529,-0.773597 -6e-7,-0.423263 -0.3482655,-0.7715286 -0.771529,-0.7715286 z m 2.4081216,0 c -0.4232635,0 -0.7715287,0.3482656 -0.7715292,0.7715286 -3e-7,0.423264 0.3482652,0.773597 0.7715292,0.773597 0.4232643,0 0.7715295,-0.350333 0.7715292,-0.773597 -5e-7,-0.423263 -0.3482657,-0.7715286 -0.7715292,-0.7715286 z m 2.4396444,0 c -0.423264,-6e-7 -0.771529,0.3482656 -0.771529,0.7715286 -1e-6,0.423264 0.348265,0.773598 0.771529,0.773597 0.423264,0 0.773596,-0.350333 0.773596,-0.773597 -10e-7,-0.423263 -0.350333,-0.771528 -0.773596,-0.7715286 z M 6.05932,10.089565 c 0.1372791,0 0.2423623,0.105084 0.2423623,0.242362 3e-7,0.137279 -0.1050832,0.243914 -0.2423623,0.243913 -0.1372796,1e-6 -0.243913,-0.106634 -0.243913,-0.243913 3e-7,-0.137278 0.1066337,-0.242362 0.243913,-0.242362 z m 2.4081216,0 c 0.1372791,0 0.2423623,0.105084 0.2423626,0.242362 0,0.137279 -0.1050833,0.243914 -0.2423626,0.243913 -0.1372793,0 -0.2418458,-0.106634 -0.2418456,-0.243913 0,-0.137278 0.1045665,-0.242362 0.2418456,-0.242362 z m 2.4396444,0 c 0.137279,10e-7 0.243912,0.105084 0.243913,0.242362 0,0.137279 -0.106634,0.243913 -0.243913,0.243913 -0.137279,1e-6 -0.242362,-0.106634 -0.242362,-0.243913 0,-0.137278 0.105083,-0.242362 0.242362,-0.242362 z m -5.0580891,2.31097 h 0.6495727 c 0.014822,0.02709 0.03359,0.08293 0.03359,0.151929 v 2.797245 c 0,0.07142 -0.020116,0.130242 -0.03514,0.156063 H 5.8505471 c -0.015025,-0.02581 -0.037207,-0.08463 -0.037207,-0.156063 v -2.797245 c 0,-0.06903 0.02071,-0.124848 0.035657,-0.151929 z m 2.2897825,0 h 0.655774 c 0.014555,0.02895 0.032556,0.07969 0.032556,0.144177 v 2.804997 c 0,0.07143 -0.022182,0.130248 -0.037207,0.156063 h -0.646472 c -0.015024,-0.02582 -0.03514,-0.08464 -0.03514,-0.156063 v -2.804997 c 0,-0.06443 0.01625,-0.115204 0.030489,-0.144177 z m 2.4262086,0.0057 h 0.646472 c 0.01502,0.02582 0.03566,0.08464 0.03566,0.156063 v 2.787427 c 0,0.07142 -0.02063,0.130242 -0.03566,0.156063 h -0.646472 c -0.01502,-0.02581 -0.03669,-0.08463 -0.03669,-0.156063 v -2.787443 c 0,-0.07143 0.02167,-0.130248 0.03669,-0.156063 z" id="path1031" style="color:#000000;font-style:normal;font-variant:normal;font-weight:normal;font-stretch:normal;font-size:medium;line-height:normal;font-family:sans-serif;font-variant-ligatures:normal;font-variant-position:normal;font-variant-caps:normal;font-variant-numeric:normal;font-variant-alternates:normal;font-variant-east-asian:normal;font-feature-settings:normal;font-variation-settings:normal;text-indent:0;text-align:start;text-decoration:none;text-decoration-line:none;text-decoration-style:solid;text-decoration-color:#000000;letter-spacing:normal;word-spacing:normal;text-transform:none;writing-mode:lr-tb;direction:ltr;text-orientation:mixed;dominant-baseline:auto;baseline-shift:baseline;text-anchor:start;white-space:normal;shape-padding:0;shape-margin:0;inline-size:0;clip-rule:nonzero;display:inline;overflow:visible;visibility:visible;opacity:1;isolation:auto;mix-blend-mode:normal;color-interpolation:sRGB;color-interpolation-filters:linearRGB;solid-color:#000000;solid-opacity:1;vector-effect:none;fill:#000000;fill-opacity:1;fill-rule:evenodd;stroke:none;stroke-width:0.529167;stroke-linecap:butt;stroke-linejoin:miter;stroke-miterlimit:4;stroke-dasharray:none;stroke-dashoffset:0;stroke-opacity:1;color-rendering:auto;image-rendering:auto;shape-rendering:auto;text-rendering:auto;enable-background:accumulate;stop-color:#000000;stop-opacity:1"/></g></svg>